<?xml version="1.0" encoding="UTF-8" standalone="no"?>
<!-- Created with Inkscape (http://www.inkscape.org/) -->

<svg
   width="20"
   height="20"
   viewBox="0 0 5.2916665 5.2916666"
   version="1.1"
   id="svg8"
   inkscape:version="1.1.1 (3bf5ae0d25, 2021-09-20)"
   sodipodi:docname="Search.svg"
   xmlns:inkscape="http://www.inkscape.org/namespaces/inkscape"
   xmlns:sodipodi="http://sodipodi.sourceforge.net/DTD/sodipodi-0.dtd"
   xmlns="http://www.w3.org/2000/svg"
   xmlns:svg="http://www.w3.org/2000/svg"
   xmlns:rdf="http://www.w3.org/1999/02/22-rdf-syntax-ns#"
   xmlns:cc="http://creativecommons.org/ns#"
   xmlns:dc="http://purl.org/dc/elements/1.1/">
  <defs
     id="defs2" />
  <sodipodi:namedview
     id="base"
     pagecolor="#dcdcdc"
     bordercolor="#666666"
     borderopacity="1.0"
     inkscape:pageopacity="0"
     inkscape:pageshadow="2"
     inkscape:zoom="31.659099"
     inkscape:cx="5.732949"
     inkscape:cy="11.023687"
     inkscape:document-units="px"
     inkscape:current-layer="ForwardPlayback"
     showgrid="true"
     units="px"
     inkscape:window-width="1920"
     inkscape:window-height="1011"
     inkscape:window-x="0"
     inkscape:window-y="32"
     inkscape:window-maximized="1"
     inkscape:pagecheckerboard="0"
     inkscape:snap-bbox="true"
     inkscape:bbox-nodes="true"
     inkscape:showpageshadow="2"
     inkscape:deskcolor="#d1d1d1"
     inkscape:object-nodes="false">
    <inkscape:grid
       type="xygrid"
       id="grid4526"
       empspacing="10" />
  </sodipodi:namedview>
  <metadata
     id="metadata5">
    <rdf:RDF>
      <cc:Work
         rdf:about="">
        <dc:format>image/svg+xml</dc:format>
        <dc:type
           rdf:resource="http://purl.org/dc/dcmitype/StillImage" />
      </cc:Work>
    </rdf:RDF>
  </metadata>
  <g
     inkscape:label="Layer 1"
     inkscape:groupmode="layer"
     id="layer1"
     transform="translate(0,-291.70831)">
    <g
       id="ForwardPlayback"
       inkscape:label="#g4524"
       inkscape:export-xdpi="96"
       inkscape:export-ydpi="96">
      <path
         id="path927"
         style="fill:#f0f0f0;stroke-width:0.264583"
         d="m 1.1812237,292.88953 a 1.3229167,1.3229167 0 0 0 2.4e-6,1.87089 1.3229167,1.3229167 0 0 0 1.8708819,-1e-5 1.3229167,1.3229167 0 0 0 4.8e-6,-1.87088 1.3229167,1.3229167 0 0 0 -1.8708891,0 z m 0.1870863,0.18708 a 1.0583333,1.0583333 0 0 1 1.496714,10e-6 1.0583333,1.0583333 0 0 1 -2.3e-6,1.49671 1.0583333,1.0583333 0 0 1 -1.496707,0 1.0583333,1.0583333 0 0 1 -4.7e-6,-1.49672 z" />
      <rect
         style="fill:#f0f0f0;stroke-width:0.264583"
         id="rect1034"
         width="0.52916664"
         height="2.1166666"
         x="-206.53351"
         y="210.32071"
         transform="rotate(-45)" />
    </g>
  </g>
</svg>
